<?xml version="1.0" encoding="UTF-8"?>
<svg xmlns="http://www.w3.org/2000/svg" xmlns:xlink="http://www.w3.org/1999/xlink" width="40px" height="45px" viewBox="0 0 40 28" version="1.1">
<g id="surface1">
<path style=" stroke:none;fill-rule:nonzero;fill:rgb(49.019608%,0.784314%,8.235294%);fill-opacity:1;" d="M 1.738281 0 C 2.8125 0.101562 3.125 0.332031 3.867188 1.121094 C 4.117188 1.449219 4.371094 1.773438 4.628906 2.109375 C 7.316406 5.378906 9.878906 6.441406 14.152344 6.980469 C 14.53125 7.015625 14.914062 7.046875 15.304688 7.085938 C 16 8.472656 16.0625 9.597656 16 11.132812 C 16.460938 11.132812 16.917969 11.132812 17.390625 11.132812 C 17.5625 10.796875 17.5625 10.796875 17.738281 10.457031 C 17.164062 10.347656 16.589844 10.234375 16 10.121094 C 16.328125 9.320312 16.574219 8.855469 17.304688 8.347656 C 18.320312 8.019531 19.109375 7.988281 20.175781 8.097656 C 20.804688 8.453125 20.804688 8.453125 21.21875 9.109375 C 21.457031 10.351562 21.457031 10.351562 21.566406 11.46875 C 22.597656 11.304688 22.597656 11.304688 23.652344 11.132812 C 23.632812 10.828125 23.632812 10.828125 23.617188 10.515625 C 23.605469 10.246094 23.597656 9.976562 23.585938 9.699219 C 23.574219 9.433594 23.5625 9.167969 23.550781 8.890625 C 23.683594 7.847656 23.890625 7.464844 24.695312 6.746094 C 25.617188 6.488281 26.476562 6.296875 27.414062 6.136719 C 31.03125 5.398438 34.617188 4.371094 36.914062 1.371094 C 37.078125 1.109375 37.246094 0.847656 37.414062 0.582031 C 37.578125 0.390625 37.742188 0.199219 37.914062 0 C 38.371094 0 38.832031 0 39.304688 0 C 39.476562 0.835938 39.476562 0.835938 39.652344 1.6875 C 39.765625 1.6875 39.882812 1.6875 40 1.6875 C 40.113281 3.292969 40.144531 4.109375 39.390625 5.566406 C 39.132812 5.84375 38.875 6.121094 38.609375 6.410156 C 38.148438 6.410156 37.691406 6.410156 37.21875 6.410156 C 37.21875 6.855469 37.21875 7.300781 37.21875 7.757812 C 37.445312 7.757812 37.675781 7.757812 37.914062 7.757812 C 38.085938 8.261719 38.085938 8.261719 38.261719 8.769531 C 37.566406 9.78125 37.566406 9.78125 36.523438 10.121094 C 36.347656 10.621094 36.347656 10.621094 36.175781 11.132812 C 35.507812 11.390625 34.835938 11.644531 34.15625 11.863281 C 33.402344 12.140625 32.769531 12.476562 32.085938 12.882812 C 30.957031 13.492188 30.957031 13.492188 29.566406 13.492188 C 29.566406 13.714844 29.566406 13.9375 29.566406 14.167969 C 30.082031 14.335938 30.082031 14.335938 30.609375 14.507812 C 30.492188 14.839844 30.378906 15.175781 30.261719 15.519531 C 29.6875 15.628906 29.113281 15.742188 28.523438 15.855469 C 28.40625 16.300781 28.292969 16.746094 28.175781 17.203125 C 25.042969 17.308594 25.042969 17.308594 23.652344 16.53125 C 23.539062 16.195312 23.421875 15.863281 23.304688 15.519531 C 22.960938 15.683594 22.960938 15.683594 22.609375 15.855469 C 22.65625 16.078125 22.699219 16.304688 22.75 16.535156 C 22.933594 17.433594 23.117188 18.332031 23.304688 19.230469 C 23.402344 19.628906 23.402344 19.628906 23.5 20.039062 C 23.6875 21.109375 23.683594 22.128906 23.675781 23.214844 C 23.671875 23.605469 23.667969 23.996094 23.664062 24.402344 C 23.660156 24.699219 23.65625 24.996094 23.652344 25.300781 C 23.191406 25.300781 22.734375 25.300781 22.261719 25.300781 C 22.03125 24.523438 21.800781 23.742188 21.566406 22.941406 C 21.335938 23.71875 21.105469 24.5 20.871094 25.300781 C 20.984375 25.414062 21.097656 25.523438 21.21875 25.636719 C 21.230469 26.425781 21.230469 27.214844 21.21875 28 C 20.644531 28 20.070312 28 19.476562 28 C 19.476562 27.777344 19.476562 27.554688 19.476562 27.324219 C 18.90625 27.324219 18.332031 27.324219 17.738281 27.324219 C 17.042969 25.933594 16.980469 24.8125 17.042969 23.277344 C 16.8125 23.277344 16.585938 23.277344 16.347656 23.277344 C 16.101562 21.59375 15.992188 20.230469 16.347656 18.554688 C 16.117188 18.21875 15.890625 17.886719 15.652344 17.542969 C 15.277344 17.644531 15.277344 17.644531 14.898438 17.746094 C 13.742188 17.902344 13.15625 17.71875 12.085938 17.289062 C 11.785156 17.171875 11.480469 17.054688 11.167969 16.9375 C 10.433594 16.53125 10.433594 16.53125 10.085938 15.519531 C 9.628906 15.386719 9.164062 15.277344 8.695312 15.179688 C 7.996094 14.855469 7.296875 14.519531 6.609375 14.167969 C 6.609375 13.613281 6.609375 13.054688 6.609375 12.480469 C 6.300781 12.335938 5.992188 12.191406 5.675781 12.039062 C 4.679688 11.546875 3.730469 11.027344 2.78125 10.457031 C 2.898438 10.125 3.011719 9.789062 3.128906 9.445312 C 3.359375 9.335938 3.589844 9.222656 3.824219 9.109375 C 3.648438 8.949219 3.472656 8.789062 3.292969 8.628906 C 3.066406 8.417969 2.839844 8.207031 2.609375 7.992188 C 2.269531 7.679688 2.269531 7.679688 1.925781 7.363281 C 1.390625 6.746094 1.390625 6.746094 1.390625 5.734375 C 0.933594 5.625 0.472656 5.511719 0 5.398438 C 0 4.617188 0 3.839844 0 3.035156 C 0.859375 3.371094 0.859375 3.371094 1.738281 3.710938 C 1.855469 3.597656 1.96875 3.488281 2.085938 3.375 C 2.054688 2.804688 2 2.234375 1.933594 1.664062 C 1.882812 1.199219 1.882812 1.199219 1.828125 0.726562 C 1.796875 0.488281 1.769531 0.246094 1.738281 0 Z M 28.871094 10.796875 C 28.871094 10.90625 28.871094 11.019531 28.871094 11.132812 C 29.789062 11.242188 30.707031 11.355469 31.652344 11.46875 C 31.652344 11.246094 31.652344 11.023438 31.652344 10.796875 C 30.734375 10.796875 29.816406 10.796875 28.871094 10.796875 Z M 28.871094 10.796875 "/>
<path style=" stroke:none;fill-rule:nonzero;fill:rgb(5.098039%,4.705882%,4.705882%);fill-opacity:1;" d="M 3.128906 8.097656 C 3.71875 8.136719 3.71875 8.136719 4.523438 8.433594 C 4.730469 8.761719 4.9375 9.085938 5.152344 9.425781 C 5.878906 10.367188 6.3125 10.46875 7.53125 10.742188 C 8.84375 10.925781 10.15625 11.039062 11.476562 11.132812 C 11.363281 11.355469 11.25 11.578125 11.128906 11.808594 C 10.328125 11.808594 9.523438 11.808594 8.695312 11.808594 C 9.148438 12.6875 9.515625 12.710938 10.457031 13.03125 C 10.710938 13.117188 10.964844 13.207031 11.230469 13.296875 C 11.523438 13.394531 11.523438 13.394531 11.824219 13.492188 C 11.710938 13.714844 11.597656 13.9375 11.476562 14.167969 C 11.25 14.167969 11.019531 14.167969 10.78125 14.167969 C 10.78125 14.390625 10.78125 14.613281 10.78125 14.84375 C 12.046875 14.730469 13.308594 14.621094 14.609375 14.507812 C 14.609375 14.730469 14.609375 14.953125 14.609375 15.179688 C 15.066406 15.179688 15.527344 15.179688 16 15.179688 C 16 14.957031 16 14.734375 16 14.507812 C 16.6875 14.507812 17.378906 14.507812 18.085938 14.507812 C 17.972656 15.730469 17.855469 16.957031 17.738281 18.21875 C 18.199219 18.21875 18.65625 18.21875 19.128906 18.21875 C 19.195312 18.539062 19.195312 18.539062 19.261719 18.871094 C 19.332031 19.101562 19.40625 19.328125 19.476562 19.566406 C 19.824219 19.734375 19.824219 19.734375 20.175781 19.902344 C 20.59375 19.117188 20.925781 18.386719 21.21875 17.542969 C 21.5625 17.542969 21.90625 17.542969 22.261719 17.542969 C 22.089844 17.207031 22.089844 17.207031 21.914062 16.867188 C 21.898438 16.191406 21.898438 15.519531 21.914062 14.84375 C 22.371094 14.953125 22.832031 15.066406 23.304688 15.179688 C 23.074219 15.402344 22.84375 15.625 22.609375 15.855469 C 22.667969 16.628906 22.667969 16.628906 22.890625 17.480469 C 22.957031 17.765625 23.023438 18.054688 23.09375 18.351562 C 23.230469 18.914062 23.363281 19.476562 23.503906 20.039062 C 23.683594 21.109375 23.683594 22.128906 23.675781 23.214844 C 23.671875 23.605469 23.667969 23.996094 23.664062 24.402344 C 23.660156 24.699219 23.65625 24.996094 23.652344 25.300781 C 23.191406 25.300781 22.734375 25.300781 22.261719 25.300781 C 22.03125 24.523438 21.800781 23.742188 21.566406 22.941406 C 21.335938 23.71875 21.105469 24.5 20.871094 25.300781 C 20.984375 25.414062 21.097656 25.523438 21.21875 25.636719 C 21.230469 26.425781 21.230469 27.214844 21.21875 28 C 20.644531 28 20.070312 28 19.476562 28 C 19.476562 27.777344 19.476562 27.554688 19.476562 27.324219 C 18.90625 27.324219 18.332031 27.324219 17.738281 27.324219 C 17.042969 25.933594 16.980469 24.8125 17.042969 23.277344 C 16.8125 23.277344 16.585938 23.277344 16.347656 23.277344 C 16.101562 21.59375 15.992188 20.230469 16.347656 18.554688 C 16.117188 18.21875 15.890625 17.886719 15.652344 17.542969 C 15.402344 17.609375 15.152344 17.679688 14.898438 17.746094 C 13.742188 17.902344 13.15625 17.71875 12.085938 17.289062 C 11.785156 17.171875 11.480469 17.054688 11.167969 16.9375 C 10.433594 16.53125 10.433594 16.53125 10.085938 15.519531 C 9.628906 15.386719 9.164062 15.277344 8.695312 15.179688 C 7.996094 14.855469 7.296875 14.519531 6.609375 14.167969 C 6.609375 13.613281 6.609375 13.054688 6.609375 12.480469 C 6.300781 12.335938 5.992188 12.191406 5.675781 12.039062 C 4.679688 11.546875 3.730469 11.027344 2.78125 10.457031 C 2.898438 10.125 3.011719 9.789062 3.128906 9.445312 C 3.359375 9.335938 3.589844 9.222656 3.824219 9.109375 C 3.597656 8.773438 3.367188 8.441406 3.128906 8.097656 Z M 3.128906 8.097656 "/>
<path style=" stroke:none;fill-rule:nonzero;fill:rgb(10.980392%,3.137255%,3.921569%);fill-opacity:1;" d="M 37.914062 0 C 38.371094 0 38.832031 0 39.304688 0 C 39.476562 0.835938 39.476562 0.835938 39.652344 1.6875 C 39.765625 1.6875 39.882812 1.6875 40 1.6875 C 40.113281 3.292969 40.144531 4.109375 39.390625 5.566406 C 39.132812 5.84375 38.875 6.121094 38.609375 6.410156 C 38.148438 6.410156 37.691406 6.410156 37.21875 6.410156 C 37.21875 6.855469 37.21875 7.300781 37.21875 7.757812 C 37.445312 7.757812 37.675781 7.757812 37.914062 7.757812 C 38.085938 8.261719 38.085938 8.261719 38.261719 8.769531 C 37.566406 9.78125 37.566406 9.78125 36.523438 10.121094 C 36.347656 10.621094 36.347656 10.621094 36.175781 11.132812 C 35.507812 11.390625 34.835938 11.644531 34.15625 11.863281 C 33.402344 12.140625 32.769531 12.476562 32.085938 12.882812 C 30.957031 13.492188 30.957031 13.492188 29.566406 13.492188 C 29.566406 13.714844 29.566406 13.9375 29.566406 14.167969 C 30.082031 14.335938 30.082031 14.335938 30.609375 14.507812 C 30.492188 14.839844 30.378906 15.175781 30.261719 15.519531 C 29.398438 15.683594 29.398438 15.683594 28.523438 15.855469 C 28.40625 16.300781 28.292969 16.746094 28.175781 17.203125 C 25.042969 17.308594 25.042969 17.308594 23.652344 16.53125 C 23.480469 16.027344 23.480469 16.027344 23.304688 15.519531 C 24.164062 15.351562 24.164062 15.351562 25.042969 15.179688 C 24.929688 14.734375 24.8125 14.289062 24.695312 13.832031 C 25.730469 13.832031 26.761719 13.832031 27.824219 13.832031 C 27.480469 13.386719 27.136719 12.941406 26.78125 12.480469 C 28.273438 12.480469 29.765625 12.480469 31.304688 12.480469 C 31.304688 12.257812 31.304688 12.035156 31.304688 11.808594 C 30.84375 11.808594 30.386719 11.808594 29.914062 11.808594 C 29.914062 11.585938 29.914062 11.363281 29.914062 11.132812 C 30.488281 11.242188 31.0625 11.355469 31.652344 11.46875 C 31.652344 11.246094 31.652344 11.023438 31.652344 10.796875 C 30.566406 10.960938 29.566406 11.132812 28.523438 11.46875 C 28.175781 11.023438 27.832031 10.578125 27.476562 10.121094 C 27.933594 10.117188 28.390625 10.109375 28.863281 10.105469 C 29.464844 10.089844 30.070312 10.074219 30.675781 10.058594 C 31.125 10.054688 31.125 10.054688 31.585938 10.050781 C 33.148438 10 33.878906 9.941406 35.148438 8.984375 C 35.875 8.128906 35.875 8.128906 36.175781 7.085938 C 35.871094 7.222656 35.871094 7.222656 35.558594 7.367188 C 33.210938 8.375 31.082031 8.6875 28.523438 8.769531 C 29.429688 7.890625 30.070312 7.90625 31.324219 7.695312 C 33.589844 7.21875 35.316406 6.421875 36.871094 4.722656 C 37.136719 4.007812 37.136719 4.007812 37.21875 3.375 C 37.445312 3.375 37.675781 3.375 37.914062 3.375 C 37.742188 2.871094 37.742188 2.871094 37.566406 2.363281 C 37.355469 2.667969 37.148438 2.972656 36.933594 3.289062 C 35.679688 4.761719 33.882812 5.339844 32 5.734375 C 31.1875 5.597656 31.1875 5.597656 30.609375 5.398438 C 31.09375 5.195312 31.09375 5.195312 31.589844 4.988281 C 34.121094 3.875 35.90625 2.953125 37.414062 0.582031 C 37.578125 0.390625 37.742188 0.199219 37.914062 0 Z M 37.914062 0 "/>
<path style=" stroke:none;fill-rule:nonzero;fill:rgb(18.82353%,5.098039%,7.058824%);fill-opacity:1;" d="M 1.738281 0 C 2.8125 0.101562 3.125 0.332031 3.867188 1.121094 C 4.117188 1.449219 4.371094 1.773438 4.628906 2.109375 C 7.316406 5.378906 9.878906 6.441406 14.152344 6.980469 C 14.53125 7.015625 14.914062 7.046875 15.304688 7.085938 C 16 8.472656 16.0625 9.597656 16 11.132812 C 16.460938 11.132812 16.917969 11.132812 17.390625 11.132812 C 17.5625 10.796875 17.5625 10.796875 17.738281 10.457031 C 17.164062 10.347656 16.589844 10.234375 16 10.121094 C 16.328125 9.320312 16.574219 8.855469 17.304688 8.347656 C 18.320312 8.019531 19.109375 7.988281 20.175781 8.097656 C 20.804688 8.453125 20.804688 8.453125 21.21875 9.109375 C 21.457031 10.351562 21.457031 10.351562 21.566406 11.46875 C 22.597656 11.304688 22.597656 11.304688 23.652344 11.132812 C 23.632812 10.828125 23.632812 10.828125 23.617188 10.515625 C 23.605469 10.246094 23.597656 9.976562 23.585938 9.699219 C 23.574219 9.433594 23.5625 9.167969 23.550781 8.890625 C 23.683594 7.863281 23.925781 7.464844 24.695312 6.746094 C 25.738281 6.382812 25.738281 6.382812 26.933594 6.136719 C 27.328125 6.050781 27.722656 5.964844 28.128906 5.875 C 29.121094 5.746094 29.683594 5.75 30.609375 6.074219 C 29.335938 6.628906 28.238281 6.859375 26.847656 6.957031 C 26.339844 6.996094 26.339844 6.996094 25.820312 7.035156 C 25.433594 7.058594 25.433594 7.058594 25.042969 7.085938 C 25.023438 7.34375 25 7.605469 24.980469 7.871094 C 24.9375 8.378906 24.9375 8.378906 24.890625 8.898438 C 24.847656 9.402344 24.847656 9.402344 24.804688 9.917969 C 24.695312 10.796875 24.695312 10.796875 24.347656 11.46875 C 24.003906 11.46875 23.660156 11.46875 23.304688 11.46875 C 23.304688 11.691406 23.304688 11.914062 23.304688 12.144531 C 22.5 12.230469 22.5 12.230469 21.566406 12.144531 C 20.773438 11.347656 20.304688 10.445312 19.824219 9.445312 C 19.480469 9.445312 19.136719 9.445312 18.78125 9.445312 C 18.730469 9.828125 18.683594 10.210938 18.628906 10.605469 C 18.433594 11.808594 18.433594 11.808594 18.085938 12.144531 C 16.890625 12.207031 16.890625 12.207031 15.652344 12.144531 C 14.957031 11.46875 14.957031 11.46875 14.886719 10.59375 C 14.898438 10.253906 14.90625 9.917969 14.914062 9.574219 C 14.917969 9.234375 14.925781 8.894531 14.933594 8.546875 C 14.941406 8.285156 14.949219 8.027344 14.957031 7.757812 C 14.511719 7.722656 14.066406 7.691406 13.609375 7.652344 C 10.449219 7.3125 7 6.46875 4.871094 4.046875 C 4.691406 3.75 4.511719 3.449219 4.324219 3.140625 C 3.878906 2.257812 3.878906 2.257812 2.78125 2.023438 C 2.871094 2.511719 2.96875 2.996094 3.066406 3.480469 C 3.117188 3.75 3.171875 4.019531 3.222656 4.296875 C 3.507812 5.144531 3.859375 5.472656 4.523438 6.074219 C 4.523438 6.296875 4.523438 6.519531 4.523438 6.746094 C 4.734375 6.8125 4.949219 6.878906 5.167969 6.945312 C 5.449219 7.03125 5.730469 7.121094 6.023438 7.210938 C 6.300781 7.296875 6.578125 7.382812 6.867188 7.472656 C 7.652344 7.757812 7.652344 7.757812 8.695312 8.433594 C 6.105469 8.707031 4.804688 7.933594 2.78125 6.410156 C 2.667969 6.855469 2.554688 7.300781 2.433594 7.757812 C 1.914062 7.316406 1.914062 7.316406 1.390625 6.746094 C 1.390625 6.414062 1.390625 6.078125 1.390625 5.734375 C 0.933594 5.625 0.472656 5.511719 0 5.398438 C 0 4.617188 0 3.839844 0 3.035156 C 0.859375 3.371094 0.859375 3.371094 1.738281 3.710938 C 1.855469 3.597656 1.96875 3.488281 2.085938 3.375 C 2.054688 2.804688 2 2.234375 1.933594 1.664062 C 1.882812 1.199219 1.882812 1.199219 1.828125 0.726562 C 1.796875 0.488281 1.769531 0.246094 1.738281 0 Z M 1.738281 0 "/>
<path style=" stroke:none;fill-rule:nonzero;fill:rgb(2.352941%,0.392157%,0.784314%);fill-opacity:1;" d="M 27.476562 10.121094 C 29.542969 10.121094 31.609375 10.121094 33.738281 10.121094 C 33.625 10.34375 33.507812 10.566406 33.390625 10.796875 C 34.253906 10.960938 34.253906 10.960938 35.128906 11.132812 C 34.929688 11.226562 34.730469 11.320312 34.523438 11.414062 C 33.511719 11.921875 32.59375 12.53125 31.652344 13.148438 C 30.957031 13.492188 30.957031 13.492188 29.566406 13.492188 C 29.566406 13.714844 29.566406 13.9375 29.566406 14.167969 C 29.910156 14.28125 30.253906 14.390625 30.609375 14.507812 C 30.492188 14.839844 30.378906 15.175781 30.261719 15.519531 C 29.6875 15.628906 29.113281 15.742188 28.523438 15.855469 C 28.40625 16.300781 28.292969 16.746094 28.175781 17.203125 C 25.042969 17.308594 25.042969 17.308594 23.652344 16.53125 C 23.539062 16.195312 23.421875 15.863281 23.304688 15.519531 C 23.878906 15.40625 24.453125 15.296875 25.042969 15.179688 C 24.929688 14.734375 24.8125 14.289062 24.695312 13.832031 C 25.730469 13.832031 26.761719 13.832031 27.824219 13.832031 C 27.480469 13.386719 27.136719 12.941406 26.78125 12.480469 C 28.273438 12.480469 29.765625 12.480469 31.304688 12.480469 C 31.304688 12.257812 31.304688 12.035156 31.304688 11.808594 C 30.84375 11.808594 30.386719 11.808594 29.914062 11.808594 C 29.914062 11.585938 29.914062 11.363281 29.914062 11.132812 C 30.773438 11.300781 30.773438 11.300781 31.652344 11.46875 C 31.652344 11.246094 31.652344 11.023438 31.652344 10.796875 C 30.566406 10.960938 29.566406 11.132812 28.523438 11.46875 C 28.175781 11.023438 27.832031 10.578125 27.476562 10.121094 Z M 27.476562 10.121094 "/>
<path style=" stroke:none;fill-rule:nonzero;fill:rgb(33.725491%,1.960784%,6.666667%);fill-opacity:1;" d="M 21.914062 14.84375 C 22.371094 14.953125 22.832031 15.066406 23.304688 15.179688 C 23.074219 15.402344 22.84375 15.625 22.609375 15.855469 C 22.667969 16.628906 22.667969 16.628906 22.890625 17.480469 C 22.957031 17.765625 23.023438 18.054688 23.09375 18.351562 C 23.230469 18.914062 23.363281 19.476562 23.503906 20.039062 C 23.683594 21.109375 23.683594 22.128906 23.675781 23.214844 C 23.671875 23.605469 23.667969 23.996094 23.664062 24.402344 C 23.660156 24.699219 23.65625 24.996094 23.652344 25.300781 C 23.191406 25.300781 22.734375 25.300781 22.261719 25.300781 C 21.917969 23.855469 21.570312 22.40625 21.21875 20.914062 C 21.1875 21.25 21.160156 21.582031 21.128906 21.925781 C 20.917969 23.4375 20.238281 24.660156 19.476562 25.976562 C 19.132812 25.976562 18.789062 25.976562 18.433594 25.976562 C 18.433594 24.640625 18.433594 23.304688 18.433594 21.925781 C 18.777344 21.925781 19.125 21.925781 19.476562 21.925781 C 19.59375 21.480469 19.707031 21.035156 19.824219 20.578125 C 19.597656 20.46875 19.367188 20.355469 19.128906 20.242188 C 19.246094 20.019531 19.359375 19.796875 19.476562 19.566406 C 19.707031 19.675781 19.9375 19.789062 20.175781 19.902344 C 20.59375 19.117188 20.925781 18.386719 21.21875 17.542969 C 21.5625 17.542969 21.90625 17.542969 22.261719 17.542969 C 22.144531 17.320312 22.03125 17.097656 21.914062 16.867188 C 21.898438 16.191406 21.898438 15.519531 21.914062 14.84375 Z M 21.914062 14.84375 "/>
<path style=" stroke:none;fill-rule:nonzero;fill:rgb(1.176471%,0.392157%,0.392157%);fill-opacity:1;" d="M 18.433594 18.554688 C 18.664062 18.664062 18.894531 18.777344 19.128906 18.890625 C 19.128906 19.226562 19.128906 19.558594 19.128906 19.902344 C 19.476562 20.125 19.820312 20.347656 20.175781 20.578125 C 19.945312 21.023438 19.714844 21.46875 19.476562 21.925781 C 19.132812 21.925781 18.789062 21.925781 18.433594 21.925781 C 18.433594 23.261719 18.433594 24.597656 18.433594 25.976562 C 18.777344 25.976562 19.125 25.976562 19.476562 25.976562 C 19.519531 25.71875 19.5625 25.460938 19.609375 25.195312 C 19.824219 24.289062 19.824219 24.289062 20.523438 23.277344 C 20.679688 22.507812 20.679688 22.507812 20.738281 21.695312 C 20.765625 21.421875 20.792969 21.152344 20.816406 20.871094 C 20.835938 20.664062 20.851562 20.453125 20.871094 20.242188 C 21.632812 20.980469 21.777344 21.25 21.914062 22.265625 C 21.71875 23.0625 21.71875 23.0625 21.414062 23.867188 C 21.3125 24.136719 21.214844 24.40625 21.109375 24.683594 C 21.03125 24.886719 20.953125 25.089844 20.871094 25.300781 C 20.984375 25.414062 21.097656 25.523438 21.21875 25.636719 C 21.230469 26.425781 21.230469 27.214844 21.21875 28 C 20.644531 28 20.070312 28 19.476562 28 C 19.476562 27.777344 19.476562 27.554688 19.476562 27.324219 C 18.90625 27.324219 18.332031 27.324219 17.738281 27.324219 C 17.042969 25.933594 16.980469 24.8125 17.042969 23.277344 C 16.8125 23.277344 16.585938 23.277344 16.347656 23.277344 C 16.234375 22.832031 16.117188 22.386719 16 21.925781 C 16.34375 21.925781 16.6875 21.925781 17.042969 21.925781 C 17.09375 21.734375 17.144531 21.539062 17.195312 21.335938 C 17.375 20.632812 17.558594 19.933594 17.738281 19.230469 C 17.96875 19.230469 18.199219 19.230469 18.433594 19.230469 C 18.433594 19.007812 18.433594 18.785156 18.433594 18.554688 Z M 18.433594 18.554688 "/>
<path style=" stroke:none;fill-rule:nonzero;fill:rgb(4.705882%,1.176471%,1.176471%);fill-opacity:1;" d="M 3.128906 8.097656 C 3.71875 8.136719 3.71875 8.136719 4.523438 8.433594 C 4.730469 8.761719 4.9375 9.085938 5.152344 9.425781 C 5.878906 10.367188 6.3125 10.46875 7.53125 10.742188 C 8.84375 10.925781 10.15625 11.039062 11.476562 11.132812 C 11.363281 11.355469 11.25 11.578125 11.128906 11.808594 C 10.328125 11.808594 9.523438 11.808594 8.695312 11.808594 C 8.984375 12.050781 9.269531 12.292969 9.566406 12.546875 C 10.433594 13.492188 10.433594 13.492188 10.542969 14.441406 C 10.507812 14.6875 10.472656 14.929688 10.433594 15.179688 C 9.824219 15.414062 9.824219 15.414062 9.042969 15.519531 C 8.324219 15.054688 8.324219 15.054688 7.652344 14.507812 C 7.308594 14.394531 6.964844 14.285156 6.609375 14.167969 C 6.609375 13.613281 6.609375 13.054688 6.609375 12.480469 C 6.300781 12.335938 5.992188 12.191406 5.675781 12.039062 C 4.679688 11.546875 3.730469 11.027344 2.78125 10.457031 C 2.898438 10.125 3.011719 9.789062 3.128906 9.445312 C 3.359375 9.335938 3.589844 9.222656 3.824219 9.109375 C 3.597656 8.773438 3.367188 8.441406 3.128906 8.097656 Z M 3.128906 8.097656 "/>
<path style=" stroke:none;fill-rule:nonzero;fill:rgb(34.509805%,3.529412%,7.843138%);fill-opacity:1;" d="M 30.609375 6.074219 C 29.335938 6.628906 28.238281 6.859375 26.847656 6.957031 C 26.339844 6.996094 26.339844 6.996094 25.820312 7.035156 C 25.5625 7.050781 25.308594 7.066406 25.042969 7.085938 C 25.011719 7.472656 25.011719 7.472656 24.980469 7.871094 C 24.949219 8.210938 24.921875 8.550781 24.890625 8.898438 C 24.863281 9.234375 24.835938 9.570312 24.804688 9.917969 C 24.695312 10.796875 24.695312 10.796875 24.347656 11.46875 C 24.003906 11.46875 23.660156 11.46875 23.304688 11.46875 C 23.304688 11.691406 23.304688 11.914062 23.304688 12.144531 C 22.5 12.230469 22.5 12.230469 21.566406 12.144531 C 20.773438 11.347656 20.304688 10.445312 19.824219 9.445312 C 19.480469 9.445312 19.136719 9.445312 18.78125 9.445312 C 18.730469 9.828125 18.683594 10.210938 18.628906 10.605469 C 18.433594 11.808594 18.433594 11.808594 18.085938 12.144531 C 17.277344 12.160156 16.464844 12.160156 15.652344 12.144531 C 15.421875 11.699219 15.191406 11.253906 14.957031 10.796875 C 15.761719 10.90625 16.5625 11.019531 17.390625 11.132812 C 17.507812 10.910156 17.621094 10.6875 17.738281 10.457031 C 17.164062 10.347656 16.589844 10.234375 16 10.121094 C 16.328125 9.320312 16.574219 8.855469 17.304688 8.347656 C 18.320312 8.019531 19.109375 7.988281 20.175781 8.097656 C 20.804688 8.453125 20.804688 8.453125 21.21875 9.109375 C 21.457031 10.351562 21.457031 10.351562 21.566406 11.46875 C 22.253906 11.359375 22.941406 11.246094 23.652344 11.132812 C 23.632812 10.828125 23.632812 10.828125 23.617188 10.515625 C 23.605469 10.246094 23.597656 9.976562 23.585938 9.699219 C 23.574219 9.433594 23.5625 9.167969 23.550781 8.890625 C 23.683594 7.863281 23.925781 7.464844 24.695312 6.746094 C 25.738281 6.382812 25.738281 6.382812 26.933594 6.136719 C 27.328125 6.050781 27.722656 5.964844 28.128906 5.875 C 29.121094 5.746094 29.683594 5.75 30.609375 6.074219 Z M 30.609375 6.074219 "/>
<path style=" stroke:none;fill-rule:nonzero;fill:rgb(3.137255%,1.176471%,1.176471%);fill-opacity:1;" d="M 37.21875 5.398438 C 37.21875 6.175781 37.21875 6.957031 37.21875 7.757812 C 37.445312 7.757812 37.675781 7.757812 37.914062 7.757812 C 38.027344 8.09375 38.144531 8.425781 38.261719 8.769531 C 37.566406 9.78125 37.566406 9.78125 36.523438 10.121094 C 36.40625 10.453125 36.292969 10.789062 36.175781 11.132812 C 35.140625 11.132812 34.109375 11.132812 33.042969 11.132812 C 33.726562 10.28125 34.398438 9.480469 35.195312 8.730469 C 35.90625 8.109375 35.90625 8.109375 36.175781 7.085938 C 35.972656 7.179688 35.769531 7.269531 35.558594 7.367188 C 33.210938 8.375 31.082031 8.6875 28.523438 8.769531 C 29.640625 7.6875 31.121094 7.671875 32.636719 7.378906 C 33.726562 7.089844 34.28125 6.765625 35.128906 6.074219 C 36.703125 5.398438 36.703125 5.398438 37.21875 5.398438 Z M 37.21875 5.398438 "/>
<path style=" stroke:none;fill-rule:nonzero;fill:rgb(43.921569%,1.568628%,7.843138%);fill-opacity:1;" d="M 36.175781 7.085938 C 36.082031 8.160156 35.914062 8.675781 35.164062 9.488281 C 33.628906 10.390625 32.261719 10.347656 30.5 10.375 C 30.175781 10.382812 29.851562 10.394531 29.519531 10.402344 C 28.722656 10.425781 27.925781 10.445312 27.128906 10.457031 C 27.246094 9.902344 27.359375 9.34375 27.476562 8.769531 C 28.542969 8.425781 29.382812 8.367188 30.5 8.308594 C 32.433594 8.167969 34.351562 7.085938 36.175781 7.085938 Z M 36.175781 7.085938 "/>
<path style=" stroke:none;fill-rule:nonzero;fill:rgb(13.725491%,5.098039%,5.882353%);fill-opacity:1;" d="M 1.738281 0 C 3.40625 0.402344 3.621094 0.808594 4.628906 2.109375 C 7.316406 5.378906 9.878906 6.441406 14.152344 6.980469 C 14.53125 7.015625 14.914062 7.046875 15.304688 7.085938 C 16 8.472656 16.0625 9.597656 16 11.132812 C 16.34375 11.300781 16.34375 11.300781 16.695312 11.46875 C 15.347656 11.175781 15.347656 11.175781 14.957031 10.796875 C 14.929688 10.28125 14.925781 9.769531 14.933594 9.257812 C 14.9375 8.976562 14.941406 8.699219 14.945312 8.410156 C 14.949219 8.195312 14.953125 7.980469 14.957031 7.757812 C 14.511719 7.722656 14.066406 7.691406 13.609375 7.652344 C 10.449219 7.3125 7 6.46875 4.871094 4.046875 C 4.609375 3.621094 4.609375 3.621094 4.347656 3.183594 C 3.804688 2.328125 3.292969 1.894531 2.433594 1.347656 C 2.433594 2.015625 2.433594 2.683594 2.433594 3.375 C 2.320312 3.375 2.207031 3.375 2.085938 3.375 C 1.972656 2.261719 1.855469 1.148438 1.738281 0 Z M 1.738281 0 "/>
<path style=" stroke:none;fill-rule:nonzero;fill:rgb(4.313726%,0.784314%,1.176471%);fill-opacity:1;" d="M 21.914062 14.84375 C 22.371094 14.953125 22.832031 15.066406 23.304688 15.179688 C 23.074219 15.402344 22.84375 15.625 22.609375 15.855469 C 22.667969 16.628906 22.667969 16.628906 22.890625 17.480469 C 22.957031 17.765625 23.023438 18.054688 23.09375 18.351562 C 23.230469 18.914062 23.363281 19.476562 23.503906 20.039062 C 23.683594 21.109375 23.683594 22.128906 23.675781 23.214844 C 23.671875 23.605469 23.667969 23.996094 23.664062 24.402344 C 23.660156 24.699219 23.65625 24.996094 23.652344 25.300781 C 23.191406 25.300781 22.734375 25.300781 22.261719 25.300781 C 22.261719 24.746094 22.261719 24.1875 22.261719 23.613281 C 22.492188 23.613281 22.71875 23.613281 22.957031 23.613281 C 22.957031 22.390625 22.957031 21.164062 22.957031 19.902344 C 22.152344 19.792969 21.347656 19.679688 20.523438 19.566406 C 20.75 18.898438 20.980469 18.230469 21.21875 17.542969 C 21.5625 17.542969 21.90625 17.542969 22.261719 17.542969 C 22.144531 17.320312 22.03125 17.097656 21.914062 16.867188 C 21.898438 16.191406 21.898438 15.519531 21.914062 14.84375 Z M 21.914062 14.84375 "/>
<path style=" stroke:none;fill-rule:nonzero;fill:rgb(37.64706%,2.352941%,7.450981%);fill-opacity:1;" d="M 27.476562 10.457031 C 27.824219 10.679688 28.167969 10.902344 28.523438 11.132812 C 28.980469 11.132812 29.441406 11.132812 29.914062 11.132812 C 29.914062 11.355469 29.914062 11.578125 29.914062 11.808594 C 30.371094 11.808594 30.832031 11.808594 31.304688 11.808594 C 31.304688 12.03125 31.304688 12.253906 31.304688 12.480469 C 30.425781 12.90625 29.804688 12.851562 28.824219 12.839844 C 28.507812 12.835938 28.191406 12.835938 27.867188 12.832031 C 27.625 12.828125 27.378906 12.824219 27.128906 12.820312 C 27.476562 13.265625 27.820312 13.710938 28.175781 14.167969 C 25.476562 14.210938 25.476562 14.210938 24.695312 13.832031 C 24.925781 14.386719 25.15625 14.945312 25.390625 15.519531 C 24.019531 15.578125 23.097656 15.550781 21.914062 14.84375 C 21.796875 15.289062 21.683594 15.734375 21.566406 16.191406 C 21.566406 15.636719 21.566406 15.078125 21.566406 14.507812 C 21.894531 14.527344 22.226562 14.546875 22.566406 14.570312 C 23.101562 14.539062 23.101562 14.539062 23.652344 14.507812 C 23.882812 14.171875 24.109375 13.839844 24.347656 13.492188 C 25.433594 13.429688 25.433594 13.429688 26.433594 13.492188 C 26.433594 12.9375 26.433594 12.378906 26.433594 11.808594 C 26.894531 11.808594 27.351562 11.808594 27.824219 11.808594 C 27.710938 11.363281 27.597656 10.917969 27.476562 10.457031 Z M 27.476562 10.457031 "/>
<path style=" stroke:none;fill-rule:nonzero;fill:rgb(28.235295%,5.490196%,8.235294%);fill-opacity:1;" d="M 16 14.507812 C 16.6875 14.507812 17.378906 14.507812 18.085938 14.507812 C 17.972656 15.730469 17.855469 16.957031 17.738281 18.21875 C 18.199219 18.21875 18.65625 18.21875 19.128906 18.21875 C 19.015625 18.441406 18.902344 18.664062 18.78125 18.890625 C 18.4375 19.003906 18.09375 19.113281 17.738281 19.230469 C 17.6875 19.488281 17.640625 19.742188 17.585938 20.007812 C 17.390625 20.914062 17.390625 20.914062 17.042969 21.925781 C 16.699219 21.925781 16.355469 21.925781 16 21.925781 C 16.171875 20.425781 16.171875 20.425781 16.347656 18.890625 C 16.691406 18.78125 17.035156 18.667969 17.390625 18.554688 C 17.390625 18.21875 17.390625 17.886719 17.390625 17.542969 C 17.046875 17.542969 16.703125 17.542969 16.347656 17.542969 C 16.652344 15.898438 16.652344 15.898438 17.042969 15.519531 C 16.699219 15.40625 16.355469 15.296875 16 15.179688 C 16 14.957031 16 14.734375 16 14.507812 Z M 16 14.507812 "/>
<path style=" stroke:none;fill-rule:nonzero;fill:rgb(16.470589%,3.529412%,4.705882%);fill-opacity:1;" d="M 30.609375 6.074219 C 29.335938 6.628906 28.238281 6.859375 26.847656 6.957031 C 26.339844 6.996094 26.339844 6.996094 25.820312 7.035156 C 25.5625 7.050781 25.308594 7.066406 25.042969 7.085938 C 25.023438 7.34375 25 7.605469 24.980469 7.871094 C 24.949219 8.210938 24.921875 8.550781 24.890625 8.898438 C 24.863281 9.234375 24.835938 9.570312 24.804688 9.917969 C 24.695312 10.796875 24.695312 10.796875 24.347656 11.46875 C 24.003906 11.46875 23.660156 11.46875 23.304688 11.46875 C 23.304688 11.691406 23.304688 11.914062 23.304688 12.144531 C 22.476562 12.1875 22.476562 12.1875 21.566406 12.144531 C 20.519531 11.128906 20.664062 10.179688 20.523438 8.769531 C 20.867188 8.9375 20.867188 8.9375 21.21875 9.109375 C 21.359375 9.890625 21.476562 10.679688 21.566406 11.46875 C 22.253906 11.359375 22.941406 11.246094 23.652344 11.132812 C 23.640625 10.929688 23.628906 10.726562 23.617188 10.515625 C 23.605469 10.246094 23.597656 9.976562 23.585938 9.699219 C 23.570312 9.300781 23.570312 9.300781 23.550781 8.890625 C 23.683594 7.863281 23.925781 7.464844 24.695312 6.746094 C 25.738281 6.382812 25.738281 6.382812 26.933594 6.136719 C 27.328125 6.050781 27.722656 5.964844 28.128906 5.875 C 29.121094 5.746094 29.683594 5.75 30.609375 6.074219 Z M 30.609375 6.074219 "/>
<path style=" stroke:none;fill-rule:nonzero;fill:rgb(2.352941%,1.176471%,0.784314%);fill-opacity:1;" d="M 6.957031 11.46875 C 7.40625 11.679688 7.855469 11.890625 8.304688 12.101562 C 8.679688 12.277344 8.679688 12.277344 9.0625 12.457031 C 9.738281 12.820312 9.738281 12.820312 10.433594 13.492188 C 10.476562 14.378906 10.476562 14.378906 10.433594 15.179688 C 9.824219 15.414062 9.824219 15.414062 9.042969 15.519531 C 8.324219 15.054688 8.324219 15.054688 7.652344 14.507812 C 7.308594 14.394531 6.964844 14.285156 6.609375 14.167969 C 6.609375 13.722656 6.609375 13.277344 6.609375 12.820312 C 6.839844 12.707031 7.066406 12.597656 7.304688 12.480469 C 7.191406 12.148438 7.074219 11.8125 6.957031 11.46875 Z M 6.957031 11.46875 "/>
<path style=" stroke:none;fill-rule:nonzero;fill:rgb(18.039216%,1.960784%,4.313726%);fill-opacity:1;" d="M 20.175781 19.230469 C 21.09375 19.453125 22.011719 19.675781 22.957031 19.902344 C 22.957031 21.128906 22.957031 22.351562 22.957031 23.613281 C 22.613281 23.613281 22.269531 23.613281 21.914062 23.613281 C 21.683594 22.722656 21.453125 21.832031 21.21875 20.914062 C 21.175781 21.296875 21.132812 21.679688 21.085938 22.074219 C 21.015625 22.472656 20.945312 22.867188 20.871094 23.277344 C 20.523438 23.445312 20.523438 23.445312 20.175781 23.613281 C 20.175781 22.613281 20.175781 21.609375 20.175781 20.578125 C 19.828125 20.46875 19.484375 20.355469 19.128906 20.242188 C 19.246094 20.019531 19.359375 19.796875 19.476562 19.566406 C 19.707031 19.675781 19.9375 19.789062 20.175781 19.902344 C 20.175781 19.679688 20.175781 19.457031 20.175781 19.230469 Z M 20.175781 19.230469 "/>
<path style=" stroke:none;fill-rule:nonzero;fill:rgb(8.627451%,1.960784%,2.745098%);fill-opacity:1;" d="M 18.433594 18.554688 C 18.664062 18.664062 18.894531 18.777344 19.128906 18.890625 C 19.128906 19.226562 19.128906 19.558594 19.128906 19.902344 C 19.476562 20.125 19.820312 20.347656 20.175781 20.578125 C 19.945312 21.023438 19.714844 21.46875 19.476562 21.925781 C 19.132812 21.925781 18.789062 21.925781 18.433594 21.925781 C 18.433594 22.816406 18.433594 23.707031 18.433594 24.625 C 18.320312 24.625 18.207031 24.625 18.085938 24.625 C 17.972656 23.511719 17.855469 22.398438 17.738281 21.253906 C 17.507812 21.921875 17.28125 22.589844 17.042969 23.277344 C 16.8125 23.277344 16.585938 23.277344 16.347656 23.277344 C 16.234375 22.832031 16.117188 22.386719 16 21.925781 C 16.34375 21.925781 16.6875 21.925781 17.042969 21.925781 C 17.09375 21.734375 17.144531 21.539062 17.195312 21.335938 C 17.375 20.632812 17.558594 19.933594 17.738281 19.230469 C 17.96875 19.230469 18.199219 19.230469 18.433594 19.230469 C 18.433594 19.007812 18.433594 18.785156 18.433594 18.554688 Z M 18.433594 18.554688 "/>
<path style=" stroke:none;fill-rule:nonzero;fill:rgb(19.607843%,5.882353%,7.450981%);fill-opacity:1;" d="M 37.21875 1.011719 C 37.5625 1.011719 37.90625 1.011719 38.261719 1.011719 C 38.261719 1.570312 38.261719 2.125 38.261719 2.699219 C 38.03125 2.585938 37.800781 2.476562 37.566406 2.363281 C 37.355469 2.667969 37.148438 2.972656 36.933594 3.289062 C 35.679688 4.761719 33.882812 5.339844 32 5.734375 C 31.1875 5.597656 31.1875 5.597656 30.609375 5.398438 C 30.941406 5.25 31.269531 5.105469 31.613281 4.953125 C 32.054688 4.75 32.496094 4.546875 32.933594 4.34375 C 33.261719 4.199219 33.261719 4.199219 33.59375 4.054688 C 34.796875 3.492188 35.613281 2.96875 36.441406 1.941406 C 36.699219 1.636719 36.953125 1.328125 37.21875 1.011719 Z M 37.21875 1.011719 "/>
<path style=" stroke:none;fill-rule:nonzero;fill:rgb(18.431373%,2.352941%,4.313726%);fill-opacity:1;" d="M 0.695312 5.398438 C 2.640625 5.207031 3.449219 5.511719 4.902344 6.640625 C 6.050781 7.40625 7.363281 7.734375 8.695312 8.097656 C 8.695312 8.207031 8.695312 8.320312 8.695312 8.433594 C 6.105469 8.707031 4.804688 7.933594 2.78125 6.410156 C 2.667969 6.855469 2.554688 7.300781 2.433594 7.757812 C 1.914062 7.316406 1.914062 7.316406 1.390625 6.746094 C 1.390625 6.414062 1.390625 6.078125 1.390625 5.734375 C 1.160156 5.625 0.933594 5.511719 0.695312 5.398438 Z M 0.695312 5.398438 "/>
<path style=" stroke:none;fill-rule:nonzero;fill:rgb(15.686275%,2.745098%,4.313726%);fill-opacity:1;" d="M 36.085938 6.175781 C 36.472656 6.292969 36.472656 6.292969 36.871094 6.410156 C 36.640625 6.855469 36.410156 7.300781 36.175781 7.757812 C 36.175781 7.535156 36.175781 7.3125 36.175781 7.085938 C 35.972656 7.179688 35.769531 7.269531 35.558594 7.367188 C 33.210938 8.375 31.082031 8.6875 28.523438 8.769531 C 29.640625 7.6875 31.121094 7.671875 32.636719 7.378906 C 34.007812 7.011719 34.691406 6.023438 36.085938 6.175781 Z M 36.085938 6.175781 "/>
<path style=" stroke:none;fill-rule:nonzero;fill:rgb(18.82353%,3.137255%,5.098039%);fill-opacity:1;" d="M 9.738281 12.820312 C 10.429688 13.042969 11.117188 13.265625 11.824219 13.492188 C 11.710938 13.714844 11.597656 13.9375 11.476562 14.167969 C 11.25 14.167969 11.019531 14.167969 10.78125 14.167969 C 10.78125 14.390625 10.78125 14.613281 10.78125 14.84375 C 12.675781 14.675781 12.675781 14.675781 14.609375 14.507812 C 14.609375 14.730469 14.609375 14.953125 14.609375 15.179688 C 15.066406 15.292969 15.527344 15.402344 16 15.519531 C 15.195312 15.628906 14.394531 15.742188 13.566406 15.855469 C 13.566406 15.632812 13.566406 15.410156 13.566406 15.179688 C 12.53125 15.179688 11.5 15.179688 10.433594 15.179688 C 10.207031 14.402344 9.976562 13.621094 9.738281 12.820312 Z M 9.738281 12.820312 "/>
<path style=" stroke:none;fill-rule:nonzero;fill:rgb(28.235295%,3.921569%,7.450981%);fill-opacity:1;" d="M 16 14.507812 C 16.6875 14.507812 17.378906 14.507812 18.085938 14.507812 C 17.972656 15.730469 17.855469 16.957031 17.738281 18.21875 C 17.625 17.996094 17.507812 17.773438 17.390625 17.542969 C 17.046875 17.542969 16.703125 17.542969 16.347656 17.542969 C 16.652344 15.898438 16.652344 15.898438 17.042969 15.519531 C 16.699219 15.40625 16.355469 15.296875 16 15.179688 C 16 14.957031 16 14.734375 16 14.507812 Z M 16 14.507812 "/>
<path style=" stroke:none;fill-rule:nonzero;fill:rgb(29.411766%,1.960784%,5.882353%);fill-opacity:1;" d="M 24.347656 13.492188 C 25.152344 13.605469 25.953125 13.714844 26.78125 13.832031 C 25.476562 14.210938 25.476562 14.210938 24.695312 13.832031 C 24.925781 14.386719 25.15625 14.945312 25.390625 15.519531 C 24.019531 15.578125 23.097656 15.550781 21.914062 14.84375 C 21.796875 15.289062 21.683594 15.734375 21.566406 16.191406 C 21.566406 15.636719 21.566406 15.078125 21.566406 14.507812 C 22.058594 14.539062 22.058594 14.539062 22.566406 14.570312 C 23.101562 14.539062 23.101562 14.539062 23.652344 14.507812 C 23.882812 14.171875 24.109375 13.839844 24.347656 13.492188 Z M 24.347656 13.492188 "/>
<path style=" stroke:none;fill-rule:nonzero;fill:rgb(30.19608%,2.352941%,5.882353%);fill-opacity:1;" d="M 21.566406 20.242188 C 21.910156 20.242188 22.253906 20.242188 22.609375 20.242188 C 23.011719 21.414062 22.980469 22.386719 22.957031 23.613281 C 22.613281 23.613281 22.269531 23.613281 21.914062 23.613281 C 21.796875 22.5 21.683594 21.386719 21.566406 20.242188 Z M 21.566406 20.242188 "/>
<path style=" stroke:none;fill-rule:nonzero;fill:rgb(7.058824%,5.098039%,5.490196%);fill-opacity:1;" d="M 34.433594 9.445312 C 35.125 9.667969 35.8125 9.890625 36.523438 10.121094 C 36.40625 10.453125 36.292969 10.789062 36.175781 11.132812 C 35.140625 11.132812 34.109375 11.132812 33.042969 11.132812 C 33.503906 10.574219 33.960938 10.019531 34.433594 9.445312 Z M 34.433594 9.445312 "/>
<path style=" stroke:none;fill-rule:nonzero;fill:rgb(48.235294%,0.784314%,8.235294%);fill-opacity:1;" d="M 20.175781 21.589844 C 20.515625 22.621094 20.515625 23.257812 20.175781 24.289062 C 19.714844 24.402344 19.253906 24.511719 18.78125 24.625 C 18.78125 23.847656 18.78125 23.066406 18.78125 22.265625 C 19.242188 22.042969 19.699219 21.820312 20.175781 21.589844 Z M 20.175781 21.589844 "/>
<path style=" stroke:none;fill-rule:nonzero;fill:rgb(10.196079%,4.313726%,4.705882%);fill-opacity:1;" d="M 0.695312 5.398438 C 1.871094 5.335938 1.871094 5.335938 3.128906 5.398438 C 3.359375 5.730469 3.589844 6.066406 3.824219 6.410156 C 3.480469 6.410156 3.136719 6.410156 2.78125 6.410156 C 2.667969 6.855469 2.554688 7.300781 2.433594 7.757812 C 1.914062 7.316406 1.914062 7.316406 1.390625 6.746094 C 1.390625 6.414062 1.390625 6.078125 1.390625 5.734375 C 1.160156 5.625 0.933594 5.511719 0.695312 5.398438 Z M 0.695312 5.398438 "/>
<path style=" stroke:none;fill-rule:nonzero;fill:rgb(15.294118%,1.568628%,3.529412%);fill-opacity:1;" d="M 6.957031 10.796875 C 8.449219 10.90625 9.941406 11.019531 11.476562 11.132812 C 11.363281 11.355469 11.25 11.578125 11.128906 11.808594 C 10.335938 11.945312 10.335938 11.945312 9.371094 12.019531 C 8.890625 12.054688 8.890625 12.054688 8.402344 12.09375 C 8.152344 12.109375 7.90625 12.128906 7.652344 12.144531 C 7.421875 11.699219 7.191406 11.253906 6.957031 10.796875 Z M 6.957031 10.796875 "/>
<path style=" stroke:none;fill-rule:nonzero;fill:rgb(28.235295%,4.705882%,7.450981%);fill-opacity:1;" d="M 0.695312 4.046875 C 1.824219 4.089844 1.824219 4.089844 3.128906 4.386719 C 3.976562 5.417969 3.976562 5.417969 4.523438 6.410156 C 4.214844 6.304688 3.90625 6.199219 3.585938 6.09375 C 2.621094 5.792969 1.695312 5.570312 0.695312 5.398438 C 0.695312 4.953125 0.695312 4.507812 0.695312 4.046875 Z M 0.695312 4.046875 "/>
<path style=" stroke:none;fill-rule:nonzero;fill:rgb(34.901962%,3.529412%,7.843138%);fill-opacity:1;" d="M 37.21875 1.011719 C 37.5625 1.011719 37.90625 1.011719 38.261719 1.011719 C 38.261719 1.570312 38.261719 2.125 38.261719 2.699219 C 38.03125 2.585938 37.800781 2.476562 37.566406 2.363281 C 37.15625 2.863281 37.15625 2.863281 36.738281 3.375 C 36.4375 3.707031 36.136719 4.042969 35.824219 4.386719 C 35.597656 4.386719 35.367188 4.386719 35.128906 4.386719 C 35.128906 4.164062 35.128906 3.941406 35.128906 3.710938 C 35.34375 3.566406 35.5625 3.417969 35.78125 3.269531 C 36.660156 2.59375 36.878906 2.03125 37.21875 1.011719 Z M 37.21875 1.011719 "/>
<path style=" stroke:none;fill-rule:nonzero;fill:rgb(3.921569%,2.352941%,2.352941%);fill-opacity:1;" d="M 16 16.53125 C 16.113281 16.863281 16.230469 17.199219 16.347656 17.542969 C 16.691406 17.542969 17.035156 17.542969 17.390625 17.542969 C 17.390625 17.875 17.390625 18.210938 17.390625 18.554688 C 16.71875 18.425781 16.71875 18.425781 16 18.21875 C 15.886719 17.996094 15.769531 17.773438 15.652344 17.542969 C 15.078125 17.652344 14.503906 17.765625 13.914062 17.878906 C 13.796875 17.65625 13.683594 17.433594 13.566406 17.203125 C 14.367188 16.980469 15.171875 16.757812 16 16.53125 Z M 16 16.53125 "/>
<path style=" stroke:none;fill-rule:nonzero;fill:rgb(10.588235%,1.176471%,2.745098%);fill-opacity:1;" d="M 27.476562 10.121094 C 29.542969 10.121094 31.609375 10.121094 33.738281 10.121094 C 33.738281 10.230469 33.738281 10.34375 33.738281 10.457031 C 32.132812 10.457031 30.523438 10.457031 28.871094 10.457031 C 28.871094 10.679688 28.871094 10.902344 28.871094 11.132812 C 29.097656 11.242188 29.328125 11.355469 29.566406 11.46875 C 28.914062 11.363281 28.914062 11.363281 28.175781 11.132812 C 27.945312 10.796875 27.714844 10.464844 27.476562 10.121094 Z M 27.476562 10.121094 "/>
<path style=" stroke:none;fill-rule:nonzero;fill:rgb(6.666667%,1.568628%,2.352941%);fill-opacity:1;" d="M 15.304688 7.421875 C 16.046875 8.699219 16.058594 9.667969 16 11.132812 C 16.230469 11.242188 16.460938 11.355469 16.695312 11.46875 C 15.347656 11.175781 15.347656 11.175781 14.957031 10.796875 C 14.988281 10.222656 15.042969 9.65625 15.109375 9.085938 C 15.144531 8.777344 15.179688 8.46875 15.214844 8.148438 C 15.246094 7.90625 15.273438 7.667969 15.304688 7.421875 Z M 15.304688 7.421875 "/>
<path style=" stroke:none;fill-rule:nonzero;fill:rgb(27.843139%,3.529412%,6.666667%);fill-opacity:1;" d="M 24 7.421875 C 24.34375 7.53125 24.6875 7.644531 25.042969 7.757812 C 25.003906 8.25 24.960938 8.742188 24.914062 9.234375 C 24.890625 9.507812 24.863281 9.78125 24.839844 10.066406 C 24.695312 10.796875 24.695312 10.796875 24 11.46875 C 23.933594 10.921875 23.867188 10.375 23.804688 9.824219 C 23.769531 9.519531 23.730469 9.214844 23.695312 8.898438 C 23.652344 8.097656 23.652344 8.097656 24 7.421875 Z M 24 7.421875 "/>
<path style=" stroke:none;fill-rule:nonzero;fill:rgb(14.117648%,1.568628%,3.529412%);fill-opacity:1;" d="M 26.78125 12.480469 C 27.816406 12.59375 28.847656 12.703125 29.914062 12.820312 C 29.570312 13.042969 29.222656 13.265625 28.871094 13.492188 C 28.753906 13.828125 28.640625 14.160156 28.523438 14.507812 C 27.949219 14.507812 27.375 14.507812 26.78125 14.507812 C 27.128906 14.285156 27.472656 14.0625 27.824219 13.832031 C 27.480469 13.386719 27.136719 12.941406 26.78125 12.480469 Z M 26.78125 12.480469 "/>
<path style=" stroke:none;fill-rule:nonzero;fill:rgb(5.882353%,5.490196%,5.490196%);fill-opacity:1;" d="M 36.871094 7.757812 C 37.214844 7.757812 37.558594 7.757812 37.914062 7.757812 C 38.027344 8.09375 38.144531 8.425781 38.261719 8.769531 C 37.917969 9.273438 37.917969 9.273438 37.566406 9.78125 C 37.105469 9.671875 36.648438 9.558594 36.175781 9.445312 C 36.402344 8.890625 36.632812 8.332031 36.871094 7.757812 Z M 36.871094 7.757812 "/>
<path style=" stroke:none;fill-rule:nonzero;fill:rgb(17.254902%,5.490196%,6.666667%);fill-opacity:1;" d="M 19.128906 18.21875 C 19.015625 18.441406 18.902344 18.664062 18.78125 18.890625 C 18.4375 19.003906 18.09375 19.113281 17.738281 19.230469 C 17.484375 19.910156 17.484375 19.910156 17.390625 20.578125 C 17.390625 20.132812 17.390625 19.6875 17.390625 19.230469 C 17.046875 19.117188 16.703125 19.007812 16.347656 18.890625 C 17.46875 18.164062 17.839844 18.148438 19.128906 18.21875 Z M 19.128906 18.21875 "/>
<path style=" stroke:none;fill-rule:nonzero;fill:rgb(10.980392%,6.27451%,6.666667%);fill-opacity:1;" d="M 1.738281 0 C 2.199219 0.109375 2.65625 0.222656 3.128906 0.335938 C 3.128906 0.671875 3.128906 1.003906 3.128906 1.347656 C 2.902344 1.347656 2.671875 1.347656 2.433594 1.347656 C 2.433594 2.015625 2.433594 2.683594 2.433594 3.375 C 2.320312 3.375 2.207031 3.375 2.085938 3.375 C 1.972656 2.261719 1.855469 1.148438 1.738281 0 Z M 1.738281 0 "/>
<path style=" stroke:none;fill-rule:nonzero;fill:rgb(10.588235%,10.196079%,9.803922%);fill-opacity:1;" d="M 10.433594 15.519531 C 11.351562 15.628906 12.269531 15.742188 13.21875 15.855469 C 13.21875 16.078125 13.21875 16.300781 13.21875 16.53125 C 12.300781 16.53125 11.382812 16.53125 10.433594 16.53125 C 10.433594 16.195312 10.433594 15.863281 10.433594 15.519531 Z M 10.433594 15.519531 "/>
<path style=" stroke:none;fill-rule:nonzero;fill:rgb(32.941177%,3.137255%,7.450981%);fill-opacity:1;" d="M 36.175781 7.085938 C 36.058594 7.640625 35.945312 8.199219 35.824219 8.769531 C 35.710938 8.4375 35.597656 8.101562 35.476562 7.757812 C 35.277344 7.878906 35.078125 7.996094 34.871094 8.117188 C 33.949219 8.488281 33.625 8.367188 32.695312 8.097656 C 33.144531 7.925781 33.59375 7.757812 34.042969 7.589844 C 34.417969 7.449219 34.417969 7.449219 34.800781 7.304688 C 35.476562 7.085938 35.476562 7.085938 36.175781 7.085938 Z M 36.175781 7.085938 "/>
<path style=" stroke:none;fill-rule:nonzero;fill:rgb(9.803922%,5.882353%,5.882353%);fill-opacity:1;" d="M 16.347656 9.109375 C 17.207031 9.441406 17.207031 9.441406 18.085938 9.78125 C 18.085938 10.339844 18.085938 10.894531 18.085938 11.46875 C 17.855469 11.359375 17.628906 11.246094 17.390625 11.132812 C 17.507812 10.910156 17.621094 10.6875 17.738281 10.457031 C 17.164062 10.347656 16.589844 10.234375 16 10.121094 C 16.113281 9.785156 16.230469 9.453125 16.347656 9.109375 Z M 16.347656 9.109375 "/>
<path style=" stroke:none;fill-rule:nonzero;fill:rgb(24.705882%,6.666667%,8.627451%);fill-opacity:1;" d="M 20.175781 8.097656 C 20.175781 8.207031 20.175781 8.320312 20.175781 8.433594 C 19.601562 8.433594 19.027344 8.433594 18.433594 8.433594 C 18.433594 8.65625 18.433594 8.878906 18.433594 9.109375 C 18.207031 9.109375 17.976562 9.109375 17.738281 9.109375 C 17.738281 9.332031 17.738281 9.554688 17.738281 9.78125 C 17.394531 9.671875 17.050781 9.558594 16.695312 9.445312 C 16.695312 9.222656 16.695312 9 16.695312 8.769531 C 17.878906 8.066406 18.800781 8.035156 20.175781 8.097656 Z M 20.175781 8.097656 "/>
<path style=" stroke:none;fill-rule:nonzero;fill:rgb(0.784314%,0.784314%,0.784314%);fill-opacity:1;" d="M 39.652344 3.375 C 39.765625 3.707031 39.882812 4.042969 40 4.386719 C 39.324219 5.460938 39.324219 5.460938 38.609375 6.410156 C 38.265625 6.296875 37.921875 6.1875 37.566406 6.074219 C 38.253906 5.183594 38.941406 4.292969 39.652344 3.375 Z M 39.652344 3.375 "/>
<path style=" stroke:none;fill-rule:nonzero;fill:rgb(34.901962%,10.588235%,13.333334%);fill-opacity:1;" d="M 2.78125 6.410156 C 3.644531 6.742188 3.644531 6.742188 4.523438 7.085938 C 4.175781 7.25 4.175781 7.25 3.824219 7.421875 C 3.824219 7.644531 3.824219 7.867188 3.824219 8.097656 C 3.480469 8.097656 3.136719 8.097656 2.78125 8.097656 C 2.78125 7.539062 2.78125 6.984375 2.78125 6.410156 Z M 2.78125 6.410156 "/>
<path style=" stroke:none;fill-rule:nonzero;fill:rgb(10.588235%,10.196079%,9.803922%);fill-opacity:1;" d="M 39.652344 1.6875 C 39.765625 1.6875 39.882812 1.6875 40 1.6875 C 39.886719 2.464844 39.769531 3.246094 39.652344 4.046875 C 39.308594 4.046875 38.964844 4.046875 38.609375 4.046875 C 39.261719 2.066406 39.261719 2.066406 39.652344 1.6875 Z M 39.652344 1.6875 "/>
</g>
</svg>
